<svg xmlns="http://www.w3.org/2000/svg" xmlns:xlink="http://www.w3.org/1999/xlink" version="1.1" id="Layer_1" x="0px" y="0px" viewBox="0 0 200 200" style="enable-background:new 0 0 200 200;" xml:space="preserve">
<style type="text/css">
	.st0{fill:#3D4659;}
	.st1{fill:#FFFFFF;}
</style>
    <g>
	<path class="st0" d="M182.14,191.84H19.07c-4.87,0-8.86-3.99-8.86-8.86V44.21c0-4.87,3.99-8.86,8.86-8.86h163.06   c4.87,0,8.86,3.99,8.86,8.86v138.78C191,187.86,187.01,191.84,182.14,191.84z"/>
        <rect x="21.87" y="83.83" class="st1" width="157.47" height="89.82"/>
        <g>
		<rect x="144.38" y="94.63" class="st0" width="25.01" height="17.05"/>
            <rect x="144.38" y="119.92" class="st0" width="25.01" height="17.05"/>
            <rect x="144.38" y="145.2" class="st0" width="25.01" height="17.05"/>
            <rect x="106.86" y="94.63" class="st0" width="25.01" height="17.05"/>
            <rect x="106.86" y="119.92" class="st0" width="25.01" height="17.05"/>
            <rect x="106.86" y="145.2" class="st0" width="25.01" height="17.05"/>
            <rect x="69.34" y="94.63" class="st0" width="25.01" height="17.05"/>
            <rect x="69.34" y="119.92" class="st0" width="25.01" height="17.05"/>
            <rect x="69.34" y="145.2" class="st0" width="25.01" height="17.05"/>
            <rect x="31.82" y="119.92" class="st0" width="25.01" height="17.05"/>
            <rect x="31.82" y="145.2" class="st0" width="25.01" height="17.05"/>
	</g>
        <g>
		<path class="st0" d="M55.17,55.18c-6.93,0-12.56-5.64-12.56-12.56V18.17c0-6.93,5.64-12.56,12.56-12.56    c6.93,0,12.56,5.64,12.56,12.56v24.44C67.73,49.54,62.09,55.18,55.17,55.18z"/>
            <path class="st1" d="M55.17,9.93c4.53,0,8.24,3.71,8.24,8.24v24.44c0,4.53-3.71,8.24-8.24,8.24s-8.24-3.71-8.24-8.24V18.17    C46.92,13.64,50.63,9.93,55.17,9.93 M55.17,1.29c-9.31,0-16.88,7.57-16.88,16.88v24.44c0,9.31,7.57,16.88,16.88,16.88    s16.88-7.57,16.88-16.88V18.17C72.05,8.86,64.48,1.29,55.17,1.29L55.17,1.29z"/>
	</g>
        <g>
		<path class="st0" d="M146.65,55.18c-6.93,0-12.56-5.64-12.56-12.56V18.17c0-6.93,5.64-12.56,12.56-12.56    c6.93,0,12.56,5.64,12.56,12.56v24.44C159.21,49.54,153.57,55.18,146.65,55.18z"/>
            <path class="st1" d="M146.65,9.93c4.53,0,8.24,3.71,8.24,8.24v24.44c0,4.53-3.71,8.24-8.24,8.24h0c-4.53,0-8.24-3.71-8.24-8.24    V18.17C138.4,13.64,142.11,9.93,146.65,9.93L146.65,9.93 M146.65,1.29c-9.31,0-16.88,7.57-16.88,16.88v24.44    c0,9.31,7.57,16.88,16.88,16.88s16.88-7.57,16.88-16.88V18.17C163.53,8.86,155.96,1.29,146.65,1.29L146.65,1.29z"/>
	</g>
</g>
</svg>