<?xml version="1.0" encoding="utf-8"?>
<!-- Generator: Adobe Illustrator 21.1.0, SVG Export Plug-In . SVG Version: 6.00 Build 0)  -->
<svg version="1.1" id="Layer_1" xmlns="http://www.w3.org/2000/svg" xmlns:xlink="http://www.w3.org/1999/xlink" x="0px" y="0px"
	 viewBox="0 0 37.1 37.1" style="enable-background:new 0 0 37.1 37.1;" xml:space="preserve">
<style type="text/css">
	.st0{clip-path:url(#SVGID_2_);fill-rule:evenodd;clip-rule:evenodd;fill:#FFFFFF;}
</style>
<g>
	<defs>
		<rect id="SVGID_1_" y="0" width="37.1" height="37.1"/>
	</defs>
	<clipPath id="SVGID_2_">
		<use xlink:href="#SVGID_1_"  style="overflow:visible;"/>
	</clipPath>
	<path class="st0" d="M16,37.1c-0.5,0-1-0.4-1-1v-4.3l-0.2-0.1c-0.5-0.1-1-0.3-1.5-0.5c-0.5-0.2-1-0.5-1.5-0.7l-0.2-0.1l-3,3
		c-0.2,0.2-0.4,0.3-0.7,0.3c-0.3,0-0.5-0.1-0.7-0.3l-3.5-3.5c-0.4-0.4-0.4-1,0-1.4l3-3l-0.1-0.2c-0.3-0.5-0.5-0.9-0.7-1.4
		c-0.2-0.5-0.4-1.1-0.6-1.6L5.2,22H1c-0.5,0-1-0.4-1-1v-5c0-0.5,0.4-1,1-1h4.3l0.1-0.2c0.1-0.5,0.3-1.1,0.5-1.6
		c0.2-0.5,0.5-1,0.7-1.5l0.1-0.2l-3-3c-0.4-0.4-0.4-1,0-1.4l3.5-3.5c0.2-0.2,0.4-0.3,0.7-0.3s0.5,0.1,0.7,0.3l3,3l0.2-0.1
		c0.5-0.3,1-0.5,1.5-0.7c0.5-0.2,1-0.4,1.6-0.5l0.2-0.1V1c0-0.5,0.4-1,1-1h5c0.5,0,1,0.4,1,1v4.3l0.2,0.1c0.5,0.1,1,0.3,1.6,0.5
		c0.5,0.2,1,0.4,1.5,0.7l0.2,0.1l3-3c0.2-0.2,0.4-0.3,0.7-0.3c0.3,0,0.5,0.1,0.7,0.3l3.5,3.5c0.2,0.2,0.3,0.4,0.3,0.7
		s-0.1,0.5-0.3,0.7l-3,3l0.1,0.2c0.3,0.5,0.5,1,0.7,1.5c0.2,0.5,0.4,1,0.5,1.6l0.1,0.2h4.3c0.5,0,1,0.4,1,1v5c0,0.5-0.4,1-1,1h-4.3
		l-0.1,0.2c-0.2,0.5-0.3,1.1-0.6,1.6c-0.2,0.5-0.4,1-0.7,1.5l-0.1,0.2l3,3c0.4,0.4,0.4,1,0,1.4l-3.5,3.5c-0.2,0.2-0.4,0.3-0.7,0.3
		s-0.5-0.1-0.7-0.3l-3-3l-0.2,0.1c-0.5,0.3-1,0.5-1.6,0.8c-0.5,0.2-1,0.4-1.5,0.5L22,31.8v4.3c0,0.5-0.4,1-1,1H16z M11.4,28.1
		c0.2,0,0.4,0.1,0.5,0.2c0.7,0.5,1.4,0.8,2.1,1.1c0.7,0.3,1.5,0.5,2.3,0.7c0.5,0.1,0.9,0.6,0.8,1.1c0,0.1,0,0.1-0.1,0.2l0,0.1v3.6h3
		v-3.5l0-0.1c0-0.1-0.1-0.2-0.1-0.3c0-0.3,0-0.5,0.2-0.7c0.1-0.2,0.4-0.4,0.6-0.4c0.8-0.1,1.6-0.4,2.3-0.7c0.7-0.3,1.5-0.7,2.1-1.1
		c0.2-0.1,0.3-0.2,0.5-0.2c0.3,0,0.5,0.1,0.7,0.3l2.9,2.9l2.2-2.2l-2.6-2.6c0,0-0.1-0.1-0.1-0.1c-0.2-0.1-0.4-0.4-0.4-0.6
		c0-0.3,0-0.5,0.1-0.7c0.4-0.7,0.8-1.4,1.1-2.1c0.3-0.7,0.5-1.5,0.7-2.2c0.1-0.5,0.5-0.8,0.9-0.8l4.1,0v-3h-4l-0.1,0
		c-0.5,0-0.9-0.3-0.9-0.8c-0.2-0.8-0.4-1.5-0.7-2.2c-0.3-0.7-0.7-1.4-1.1-2c-0.3-0.4-0.2-0.9,0.1-1.2l2.9-2.9l-2.2-2.2l-2.8,2.8
		c-0.2,0.2-0.4,0.3-0.7,0.3c-0.2,0-0.4-0.1-0.5-0.2c-0.6-0.4-1.3-0.8-2-1.1c-0.7-0.3-1.5-0.5-2.2-0.7c-0.5-0.1-0.8-0.5-0.8-1l0-4h-3
		v4c0,0.5-0.3,1-0.8,1c-0.8,0.2-1.5,0.4-2.2,0.7c-0.7,0.3-1.4,0.7-2,1.1c-0.2,0.1-0.3,0.2-0.5,0.2c-0.3,0-0.5-0.1-0.7-0.3L7.9,5.7
		L5.7,7.9l2.8,2.8C8.9,11,9,11.6,8.7,12c-0.4,0.6-0.8,1.3-1.1,2c-0.3,0.7-0.5,1.5-0.7,2.2C6.9,16.7,6.5,17,6,17l-4.1,0v3h4l0.1,0
		c0.5,0,0.9,0.3,0.9,0.8c0.2,0.8,0.4,1.6,0.7,2.3c0.3,0.7,0.7,1.4,1.2,2.1C8.9,25.4,9,25.7,9,25.9c0,0.3-0.2,0.5-0.4,0.6
		c-0.1,0.1-0.2,0.1-0.3,0.1l-0.1,0l-2.5,2.5l2.2,2.2l2.6-2.6c0,0,0.1-0.1,0.1-0.2C10.8,28.3,11.1,28.1,11.4,28.1 M18.5,26.1
		c-2,0-3.9-0.8-5.3-2.2c-1.4-1.4-2.2-3.3-2.2-5.3c0-2,0.8-3.9,2.2-5.3c1.4-1.4,3.3-2.2,5.3-2.2c2,0,3.9,0.8,5.3,2.2
		c1.4,1.4,2.2,3.3,2.2,5.3c0,2-0.8,3.9-2.2,5.3C22.4,25.3,20.5,26.1,18.5,26.1 M18.5,12.9c-1.5,0-2.9,0.6-4,1.6
		c-1.1,1.1-1.6,2.5-1.6,4c0,1.5,0.6,2.9,1.6,4c1.1,1.1,2.5,1.6,4,1.6c1.5,0,2.9-0.6,4-1.6c1.1-1.1,1.6-2.5,1.6-4
		c0-1.5-0.6-2.9-1.6-4C21.4,13.5,20,12.9,18.5,12.9"/>
</g>
</svg>
