<svg xmlns="http://www.w3.org/2000/svg" viewBox="0 0 430.64 430.81"><defs><style>.cls-1{fill:#fff;}</style></defs><g id="Layer_2" data-name="Layer 2"><g id="Isolation_Mode" data-name="Isolation Mode"><path class="cls-1" d="M241.14,74.21c6.47-25.2,20.07-44.9,41.52-58.78,58.41-37.79,136.26-2.56,146.86,66.33a95.49,95.49,0,0,1-67.1,106.15c-4,1.19-5.6,2.72-5.39,7,.39,7.64,0,15.31.14,23a14.56,14.56,0,0,1-4.49,11.16q-98.76,98.55-197.45,197.17c-6.12,6.11-11.54,6.12-17.7,0Q71,359.69,4.47,293.12c-5.92-5.93-6-11.53-.12-17.36q99-99,198.21-197.82a14.22,14.22,0,0,1,8.72-3.56C221.07,73.93,230.88,74.21,241.14,74.21ZM26.46,283.35,147.06,404c-.29.19-.13.12,0,0q92.79-93.17,185.57-186.34c.79-.79,1.85-1.83,1.87-2.78.16-7.57.09-15.14.09-22.72-13.49-.33-25.79-2.8-37.44-8a7.73,7.73,0,0,0-7.79.37,31.83,31.83,0,0,1-41.5-10.13c-9-13.17-6.59-32,5.42-42,13.34-11.18,31.54-11,43.57.42,9.29,8.83,11.49,19.77,9,33.16l28.9,5.84V96.25c-2.86,0-5,0-7.13,0-35.26-.3-70.52-.53-105.77-1a13.11,13.11,0,0,0-10.48,4.13Q121,189.77,30.52,279.92C29.11,281.32,27.47,282.5,26.46,283.35ZM355.92,166.8c32.17-6.11,56.83-44.31,52.46-80.1-4.59-37.56-38.74-66.84-75.94-65.1-32.39,1.52-67.5,28.48-68.21,52.65,1.33,0,2.65,0,4,0L342,75c10.18.11,13.47,3.36,13.58,13.36.1,9.14.29,18.29.32,27.43C356,132.76,355.92,149.7,355.92,166.8Zm-82,.54a11,11,0,0,0,10.82-11.2A10.07,10.07,0,0,0,274.24,146a10.91,10.91,0,0,0-10.82,11.19A10.06,10.06,0,0,0,273.93,167.34Z"/></g></g></svg>