<?xml version="1.0" encoding="utf-8"?>
<!-- Generator: Adobe Illustrator 21.1.0, SVG Export Plug-In . SVG Version: 6.00 Build 0)  -->
<svg version="1.1" id="Layer_1" xmlns="http://www.w3.org/2000/svg" xmlns:xlink="http://www.w3.org/1999/xlink" x="0px" y="0px"
	 viewBox="0 0 40 28" style="enable-background:new 0 0 40 28;" xml:space="preserve">
<style type="text/css">
	.st0{clip-path:url(#SVGID_2_);fill:#FFFFFF;}
</style>
<g>
	<defs>
		<rect id="SVGID_1_" width="40" height="28"/>
	</defs>
	<clipPath id="SVGID_2_">
		<use xlink:href="#SVGID_1_"  style="overflow:visible;"/>
	</clipPath>
	<path class="st0" d="M37,10h-4.7c-0.6,0-1,0.4-1,1c0,0.6,0.4,1,1,1H37c0.5,0,1,0.4,1,1V25c0,0.5-0.4,1-1,1H3c-0.5,0-1-0.4-1-1V13
		c0-0.5,0.4-1,1-1h4.2c0.6,0,1-0.4,1-1c0-0.6-0.4-1-1-1H3c-1.6,0-3,1.3-3,3v12c0,1.6,1.3,3,3,3H37c1.6,0,3-1.3,3-3V13
		C40,11.3,38.7,10,37,10"/>
	<path class="st0" d="M19.4,17.8c0,0,0.1,0,0.1,0.1c0,0,0.1,0,0.1,0.1C19.7,18,19.9,18,20,18h0c0.1,0,0.3,0,0.4-0.1c0,0,0,0,0,0
		c0,0,0.1-0.1,0.1-0.1c0,0,0,0,0.1,0l5-4c0.4-0.3,0.5-1,0.2-1.4c-0.3-0.4-1-0.5-1.4-0.2L21,14.9V1c0-0.6-0.4-1-1-1c-0.6,0-1,0.4-1,1
		v13.9l-3.4-2.7c-0.4-0.3-1.1-0.3-1.4,0.2c-0.3,0.4-0.3,1.1,0.2,1.4L19.4,17.8z"/>
</g>
</svg>
