<svg xmlns="http://www.w3.org/2000/svg" viewBox="0 0 100.68 148.71"><defs><style>.cls-1{fill:none;stroke:#fff;stroke-miterlimit:10;stroke-width:7px;}</style></defs><g id="Layer_2" data-name="Layer 2"><g id="Isolation_Mode" data-name="Isolation Mode"><path class="cls-1" d="M50.34,141.8c-9.6-16.4-18.85-32.26-28.16-48.1q-5.54-9.42-11.24-18.76C.32,57.47,1.27,40.19,12.51,23.56,23,8.1,42.19.62,59.48,4.52a47.52,47.52,0,0,1,36.85,38A41.19,41.19,0,0,1,91.6,71.82C78.13,95,64.36,118.06,50.34,141.8ZM73.28,50.33A22.95,22.95,0,1,0,50,73,22.66,22.66,0,0,0,73.28,50.33Z"/></g></g></svg>