<?xml version="1.0" encoding="utf-8"?>
<!-- Generator: Adobe Illustrator 21.1.0, SVG Export Plug-In . SVG Version: 6.00 Build 0)  -->
<svg version="1.1" id="Layer_1" xmlns="http://www.w3.org/2000/svg" xmlns:xlink="http://www.w3.org/1999/xlink" x="0px" y="0px"
	 viewBox="0 0 22.2 22.2" style="enable-background:new 0 0 22.2 22.2;" xml:space="preserve">
<style type="text/css">
	.st0{clip-path:url(#SVGID_2_);fill-rule:evenodd;clip-rule:evenodd;fill:#FFFFFF;}
	.st1{fill:#FFFFFF;}
	.st2{font-family:'Montserrat-Regular';}
	.st3{font-size:12px;}
</style>
<g>
	<defs>
		<rect id="SVGID_1_" y="0" width="22.2" height="22.2"/>
	</defs>
	<clipPath id="SVGID_2_">
		<use xlink:href="#SVGID_1_"  style="overflow:visible;"/>
	</clipPath>
	<path class="st0" d="M11.1,0c3.1,0,5.8,1.2,7.8,3.2c2,2,3.2,4.8,3.2,7.8c0,3.1-1.2,5.8-3.2,7.8c-2,2-4.8,3.2-7.8,3.2
		c-3.1,0-5.8-1.2-7.8-3.2c-2-2-3.2-4.8-3.2-7.8C0,8,1.2,5.3,3.2,3.2C5.3,1.2,8,0,11.1,0 M17.8,4.3c-1.7-1.7-4.1-2.8-6.8-2.8
		S6,2.6,4.3,4.3c-1.7,1.7-2.8,4.1-2.8,6.8s1.1,5,2.8,6.8c1.7,1.7,4.1,2.8,6.8,2.8s5-1.1,6.8-2.8c1.7-1.7,2.8-4.1,2.8-6.8
		S19.6,6.1,17.8,4.3"/>
</g>
<text transform="matrix(1 0 0 1 7.3496 14.9996)" class="st1 st2 st3">$</text>
</svg>
