<?xml version="1.0" encoding="utf-8"?>
<!-- Generator: Adobe Illustrator 21.1.0, SVG Export Plug-In . SVG Version: 6.00 Build 0)  -->
<svg version="1.1" id="Layer_1" xmlns="http://www.w3.org/2000/svg" xmlns:xlink="http://www.w3.org/1999/xlink" x="0px" y="0px"
	 viewBox="0 0 47.3 42.3" style="enable-background:new 0 0 47.3 42.3;" xml:space="preserve">
<style type="text/css">
	.st0{clip-path:url(#SVGID_2_);fill:#FFFFFF;}
</style>
<g>
	<defs>
		<rect id="SVGID_1_" y="0" width="47.3" height="42.3"/>
	</defs>
	<clipPath id="SVGID_2_">
		<use xlink:href="#SVGID_1_"  style="overflow:visible;"/>
	</clipPath>
	<path class="st0" d="M3.7,29.9h39.9v3.7H3.7V29.9z M12.5,27.4H3.7V8.7h8.7V27.4z M22.4,27.4h-7.5V8.7h7.5V27.4z M32.4,27.4h-7.5
		V8.7h7.5V27.4z M43.6,27.4h-8.7V8.7h8.7V27.4z M47.3,2.5c0-1.4-1.1-2.5-2.5-2.5c-1.4,0-2.5,1.1-2.5,2.5c0,0.9,0.5,1.7,1.2,2.1v1.6
		H3.7V4.6C4.5,4.2,5,3.4,5,2.5C5,1.1,3.9,0,2.5,0S0,1.1,0,2.5c0,0.9,0.5,1.7,1.2,2.1v35.2c0,1.4,1.1,2.5,2.5,2.5
		c1.4,0,2.5-1.1,2.5-2.5c0-1.4-1.1-2.5-2.5-2.5v-1.2h39.9v1.2c-1.4,0-2.5,1.1-2.5,2.5c0,1.4,1.1,2.5,2.5,2.5c1.4,0,2.5-1.1,2.5-2.5
		V4.6C46.8,4.2,47.3,3.4,47.3,2.5"/>
</g>
</svg>
