<?xml version="1.0" encoding="utf-8"?>
<!-- Generator: Adobe Illustrator 21.1.0, SVG Export Plug-In . SVG Version: 6.00 Build 0)  -->
<svg version="1.1" id="Layer_1" xmlns="http://www.w3.org/2000/svg" xmlns:xlink="http://www.w3.org/1999/xlink" x="0px" y="0px"
	 viewBox="0 0 44 40" style="enable-background:new 0 0 44 40;" xml:space="preserve">
<style type="text/css">
	.st0{clip-path:url(#SVGID_2_);fill:#FFFFFF;}
</style>
<g>
	<defs>
		<rect id="SVGID_1_" y="0" width="44" height="40"/>
	</defs>
	<clipPath id="SVGID_2_">
		<use xlink:href="#SVGID_1_"  style="overflow:visible;"/>
	</clipPath>
	<path class="st0" d="M43.7,18.3l-21-18C22.5,0.1,22.2,0,22,0c-0.2,0-0.5,0.1-0.7,0.2l-21,18C0.1,18.5,0,18.7,0,19
		c0,0.3,0.1,0.6,0.3,0.8l3,3c0.3,0.3,0.8,0.3,1.2,0.1l1.4-1l2-1.3l14-9.3l0,0l0,0l14,9.3l2,1.3l1.4,1c0.4,0.3,0.9,0.2,1.2-0.1l3-3
		c0.2-0.2,0.3-0.5,0.3-0.8C44,18.7,43.9,18.5,43.7,18.3 M39.9,20.7L22.6,9.2C22.4,9.1,22.2,9,22,9c0,0,0,0,0,0h0
		c-0.2,0-0.4,0.1-0.6,0.2L4.1,20.7L2.5,19L22,2.3l0,0l0,0L41.5,19L39.9,20.7z"/>
	<path class="st0" d="M37,23c-0.6,0-1,0.4-1,1v14h-9V25c0-0.6-0.4-1-1-1h-4h-4c-0.6,0-1,0.4-1,1v13H8V24c0-0.6-0.4-1-1-1
		c-0.6,0-1,0.4-1,1v15c0,0.6,0.4,1,1,1h11h4h4h11c0.6,0,1-0.4,1-1V24C38,23.4,37.6,23,37,23 M25,38h-3h-3V26h3h3V38z"/>
</g>
</svg>
