<svg xmlns="http://www.w3.org/2000/svg" viewBox="0 0 250.31 231.88">
    <defs>
        <style>.cls-1{fill:none;stroke:#ffffff;stroke-miterlimit:10;stroke-width:8px;}.cls-2{fill:#ffffff;}</style>
    </defs>
    <g id="Layer_2" data-name="Layer 2">
        <g id="Layer_1-2" data-name="Layer 1">
            <path class="cls-1"
                  d="M230.91,71.3C219,80.66,200.71,77.21,190,63.58S180.14,31.33,192,22c.41-.32.84-.63,1.26-.92l-11.82-15c-1.7-2.16-4.63-2.71-6.52-1.23L5.51,138.46c-1.88,1.49-2,4.47-.32,6.63L17,160l.42-.35c11.87-9.36,30.2-5.91,40.94,7.71s9.84,32.25-2,41.61c-.14.12-.3.22-.45.33l13,16.48c1.7,2.16,4.63,2.71,6.51,1.22L244.8,93.41c1.88-1.48,2-4.46.32-6.62l-13-16.5C231.72,70.64,231.32,71,230.91,71.3Z"/>
            <rect class="cls-2" x="138.43" y="43.36" width="16.3" height="7.37" rx="3.69"
                  transform="translate(93.26 -97.37) rotate(51.94)"/>
            <rect class="cls-2" x="151.26" y="59.74" width="16.3" height="7.37" rx="3.69"
                  transform="translate(111.07 -101.18) rotate(51.94)"/>
            <rect class="cls-2" x="164.08" y="76.12" width="16.3" height="7.37" rx="3.69"
                  transform="translate(128.89 -105) rotate(51.94)"/>
            <rect class="cls-2" x="176.91" y="92.5" width="16.3" height="7.37" rx="3.69"
                  transform="translate(146.71 -108.82) rotate(51.94)"/>
            <rect class="cls-2" x="189.74" y="108.89" width="16.3" height="7.37" rx="3.69"
                  transform="translate(164.52 -112.63) rotate(51.94)"/>
        </g>
    </g>
</svg>
