<?xml version="1.0" encoding="utf-8"?>
<!-- Generator: Adobe Illustrator 21.1.0, SVG Export Plug-In . SVG Version: 6.00 Build 0)  -->
<svg version="1.1" id="Layer_1" xmlns="http://www.w3.org/2000/svg" xmlns:xlink="http://www.w3.org/1999/xlink" x="0px" y="0px"
	 viewBox="0 0 38 38" style="enable-background:new 0 0 38 38;" xml:space="preserve">
<style type="text/css">
	.st0{clip-path:url(#SVGID_2_);fill:#FFFFFF;}
</style>
<g>
	<defs>
		<rect id="SVGID_1_" width="38" height="38"/>
	</defs>
	<clipPath id="SVGID_2_">
		<use xlink:href="#SVGID_1_"  style="overflow:visible;"/>
	</clipPath>
	<path class="st0" d="M34,38H4c-1.8,0-3.2-1.5-3.8-3.8C-0.2,32.4,0,30,1.4,29.1c1-0.9,3.5-2,7.2-3.6c1.8-0.8,4.3-1.9,4.7-2.2
		c0.3-0.3,0.1-2.4-2.1-5.6c-2.5-2.6-2-4.9-1.2-6c0-0.2,0-0.5-0.1-0.7C9.8,9.5,9.6,7.3,10,5.7C11.1,1.8,15.5,0,19,0s7.9,1.8,9,5.7
		c0.5,1.6,0.2,3.8,0.1,5.2c0,0.3,0,0.5-0.1,0.7c0.8,1.1,1.3,3.4-1.2,6c-2.2,3.2-2.4,5.4-2.1,5.7c0.4,0.3,2.9,1.4,4.7,2.2
		c3.7,1.6,6.2,2.8,7.2,3.6c1.5,0.9,1.7,3.2,1.2,5.1C37.2,36.5,35.7,38,34,38 M19,2c-2.3,0-6.2,1.1-7,4.3c-0.3,1.2-0.2,3.2-0.1,4.5
		c0.1,0.5,0.1,1,0.1,1.3c0,0.3-0.1,0.5-0.3,0.7c-0.1,0.1-1.2,1.4,1,3.6c0,0,0.1,0.1,0.1,0.1c2,2.9,3.5,6.6,1.9,8.3
		c-0.5,0.5-1.9,1.2-5.3,2.7c-2.5,1.1-6,2.6-6.7,3.3c-0.1,0.1-0.2,0.1-0.2,0.2c-0.4,0.2-0.7,1.4-0.3,2.9C2.4,34.8,3.1,36,4,36h30
		c1,0,1.6-1.2,1.9-2.3c0.4-1.5,0.1-2.7-0.3-2.9c-0.1,0-0.2-0.1-0.2-0.2c-0.7-0.7-4.1-2.2-6.7-3.3c-3.4-1.5-4.8-2.1-5.3-2.7
		c-1.6-1.6-0.1-5.3,1.9-8.3c0,0,0.1-0.1,0.1-0.1c2.3-2.3,1-3.6,1-3.6C26.1,12.5,26,12.2,26,12c0-0.3,0-0.7,0.1-1.3
		c0.1-1.3,0.3-3.2-0.1-4.5C25.2,3.1,21.3,2,19,2"/>
</g>
</svg>
