<?xml version="1.0" encoding="utf-8"?>
<!-- Generator: Adobe Illustrator 21.1.0, SVG Export Plug-In . SVG Version: 6.00 Build 0)  -->
<svg version="1.1" id="Layer_1" xmlns="http://www.w3.org/2000/svg" xmlns:xlink="http://www.w3.org/1999/xlink" x="0px" y="0px"
	 viewBox="0 0 22.2 22.2" style="enable-background:new 0 0 22.2 22.2;" xml:space="preserve">
<style type="text/css">
	.st0{clip-path:url(#SVGID_2_);fill-rule:evenodd;clip-rule:evenodd;fill:#FFFFFF;}
</style>
<g>
	<defs>
		<rect id="SVGID_1_" y="0" width="22.2" height="22.2"/>
	</defs>
	<clipPath id="SVGID_2_">
		<use xlink:href="#SVGID_1_"  style="overflow:visible;"/>
	</clipPath>
	<path class="st0" d="M11.1,0c3.1,0,5.8,1.2,7.8,3.2c2,2,3.2,4.8,3.2,7.8c0,3.1-1.2,5.8-3.2,7.8c-2,2-4.8,3.2-7.8,3.2
		c-3.1,0-5.8-1.2-7.8-3.2c-2-2-3.2-4.8-3.2-7.8C0,8,1.2,5.3,3.2,3.2C5.3,1.2,8,0,11.1,0 M10.9,5.2c-0.3,0-0.6,0.1-0.8,0.3
		C10,5.8,9.9,6,9.9,6.3c0,0.3,0.1,0.5,0.2,0.7c0.2,0.2,0.4,0.3,0.8,0.3c0.3,0,0.6-0.1,0.8-0.3c0.2-0.2,0.3-0.4,0.3-0.7
		c0-0.3-0.1-0.5-0.3-0.7C11.5,5.4,11.2,5.2,10.9,5.2 M10.5,10.2v5c0,0.2-0.2,0.4-0.6,0.4c-0.2,0-0.6,0-1.2,0l-0.1,0
		c-0.2,0-0.3,0-0.4,0.2C8,15.9,7.9,16,7.9,16.2c0,0.2,0.1,0.4,0.2,0.5c0.1,0.1,0.3,0.2,0.4,0.2c0.7,0,1.5,0,2.3,0c0.9,0,1.8,0,2.6,0
		c0.2,0,0.4,0,0.5-0.2c0.1-0.1,0.2-0.3,0.2-0.5c0-0.2-0.1-0.4-0.2-0.5c-0.1-0.1-0.3-0.2-0.5-0.1c-0.5,0.1-0.9,0.1-1.1,0.1
		c-0.3,0-0.5-0.2-0.5-0.4V8.7c-0.5,0.1-1.1,0.1-1.7,0.1c-0.6,0-0.9,0-1-0.1c-0.2,0-0.3,0-0.5,0.2C8.7,9,8.6,9.1,8.6,9.3
		c0,0.2,0.1,0.4,0.2,0.5C8.9,10,9,10,9.2,10c0.2,0,0.4,0,0.7,0C10.3,10,10.5,10.1,10.5,10.2 M17.8,4.3c-1.7-1.7-4.1-2.8-6.8-2.8
		s-5,1.1-6.8,2.8c-1.7,1.7-2.8,4.1-2.8,6.8s1.1,5,2.8,6.8c1.7,1.7,4.1,2.8,6.8,2.8s5-1.1,6.8-2.8c1.7-1.7,2.8-4.1,2.8-6.8
		S19.6,6.1,17.8,4.3"/>
</g>
</svg>
