<?xml version="1.0" encoding="utf-8"?>
<!-- Generator: Adobe Illustrator 21.1.0, SVG Export Plug-In . SVG Version: 6.00 Build 0)  -->
<svg version="1.1" id="Layer_1" xmlns="http://www.w3.org/2000/svg" xmlns:xlink="http://www.w3.org/1999/xlink" x="0px" y="0px"
	 viewBox="0 0 38 38" style="enable-background:new 0 0 38 38;" xml:space="preserve">
<style type="text/css">
	.st0{clip-path:url(#SVGID_2_);fill:#E1F4FD;}
</style>
<g>
	<defs>
		<rect id="SVGID_1_" width="38" height="38"/>
	</defs>
	<clipPath id="SVGID_2_">
		<use xlink:href="#SVGID_1_"  style="overflow:visible;"/>
	</clipPath>
	<path class="st0" d="M10,10c-1.7,0-3-1.3-3-3V3c0-1.7,1.3-3,3-3c1.7,0,3,1.3,3,3l0,4C13,8.7,11.7,10,10,10 M10,2C9.5,2,9,2.4,9,3
		l0,4c0,0.6,0.4,1,1,1c0.6,0,1-0.4,1-1V3c0-0.3-0.1-0.5-0.3-0.7C10.5,2.1,10.3,2,10,2"/>
	<path class="st0" d="M28,10c-1.7,0-3-1.3-3-3V3c0-1.7,1.3-3,3-3c1.7,0,3,1.3,3,3l0,4C31,8.7,29.7,10,28,10 M28,2c-0.6,0-1,0.4-1,1
		l0,4c0,0.6,0.4,1,1,1c0.6,0,1-0.4,1-1V3c0-0.3-0.1-0.5-0.3-0.7C28.5,2.1,28.3,2,28,2"/>
	<path class="st0" d="M8,22c0,0.6-0.4,1-1,1s-1-0.4-1-1c0-0.6,0.4-1,1-1S8,21.4,8,22"/>
	<path class="st0" d="M16,22c0,0.6-0.4,1-1,1c-0.6,0-1-0.4-1-1c0-0.6,0.4-1,1-1C15.6,21,16,21.4,16,22"/>
	<path class="st0" d="M24,22c0,0.6-0.4,1-1,1c-0.6,0-1-0.4-1-1c0-0.6,0.4-1,1-1C23.6,21,24,21.4,24,22"/>
	<path class="st0" d="M32,22c0,0.6-0.4,1-1,1c-0.6,0-1-0.4-1-1c0-0.6,0.4-1,1-1C31.6,21,32,21.4,32,22"/>
	<path class="st0" d="M32,29c0,0.6-0.4,1-1,1c-0.6,0-1-0.4-1-1c0-0.6,0.4-1,1-1C31.6,28,32,28.4,32,29"/>
	<path class="st0" d="M24,29c0,0.6-0.4,1-1,1c-0.6,0-1-0.4-1-1c0-0.6,0.4-1,1-1C23.6,28,24,28.4,24,29"/>
	<path class="st0" d="M16,29c0,0.6-0.4,1-1,1c-0.6,0-1-0.4-1-1c0-0.6,0.4-1,1-1C15.6,28,16,28.4,16,29"/>
	<path class="st0" d="M8,29c0,0.6-0.4,1-1,1s-1-0.4-1-1c0-0.6,0.4-1,1-1S8,28.4,8,29"/>
	<path class="st0" d="M23,6h-8c-0.6,0-1-0.4-1-1c0-0.6,0.4-1,1-1h8c0.6,0,1,0.4,1,1C24,5.6,23.6,6,23,6"/>
	<path class="st0" d="M37,15H1c-0.6,0-1-0.4-1-1c0-0.6,0.4-1,1-1h36c0.6,0,1,0.4,1,1C38,14.6,37.6,15,37,15"/>
	<path class="st0" d="M35,4h-1h-1c-0.6,0-1,0.4-1,1c0,0.6,0.4,1,1,1h1h1c0.6,0,1,0.4,1,1v28c0,0.6-0.4,1-1,1H3c-0.6,0-1-0.4-1-1V7
		c0-0.6,0.4-1,1-1h1h1c0.6,0,1-0.4,1-1c0-0.6-0.4-1-1-1H4H3C1.3,4,0,5.3,0,7v28c0,1.7,1.3,3,3,3h32c1.7,0,3-1.3,3-3V7
		C38,5.3,36.7,4,35,4"/>
</g>
</svg>
