<?xml version="1.0" encoding="utf-8"?>
<!-- Generator: Adobe Illustrator 21.0.0, SVG Export Plug-In . SVG Version: 6.00 Build 0)  -->
<svg version="1.1" id="Layer_1" xmlns="http://www.w3.org/2000/svg" xmlns:xlink="http://www.w3.org/1999/xlink" x="0px" y="0px"
	 viewBox="0 0 209.5 56.5" style="enable-background:new 0 0 209.5 56.5;" xml:space="preserve">
<style type="text/css">
	.st0{clip-path:url(#SVGID_2_);fill:#fff;}
	.st1{clip-path:url(#SVGID_2_);fill:#fff;}
</style>
<g>
	<defs>
		<rect id="SVGID_1_" y="0" width="209.5" height="56.5"/>
	</defs>
	<clipPath id="SVGID_2_">
		<use xlink:href="#SVGID_1_"  style="overflow:visible;"/>
	</clipPath>
	<path class="st0" d="M15.1,47.8c-0.2-0.1-0.4-0.1-0.7-0.1c-1.2,0-2.1,0.9-2.1,2.1c0,1.2,0.9,2.1,2.1,2.1c0.2,0,0.5,0,0.7-0.1
		c-0.8-0.3-1.5-1.1-1.5-2C13.6,48.8,14.2,48,15.1,47.8"/>
	<path class="st0" d="M51.3,44.3c-0.2-9.5,5.4-25.4,3-28.8c-1.1-1.5-2.9,0.9-9.8,2.2c-5.9,1-23,1-31.5,0.2c-1-1.8-2.4-4.3-2.4-6.7
		c0-7.2,6.6-9.4,9.1-9.5c0,1.9,0,4,0,6L21,8.4c0-2.3,0-6,0-7.1c0-0.5,0-1-0.5-1.3C19.9-0.3,8.7,1,8.7,11.4c0,1.4,0.3,3.8,0.7,5.8
		c1.4,11.8,1.8,14.9,1.4,26.1c0.7-0.2,1.4-0.4,2.2-0.4c0.7,0,1.3,0.1,1.9,0.3c-0.2,0-0.3,0-0.5,0c-3.6,0-6.6,2.9-6.6,6.6
		c0,2.4,1.3,4.6,3.3,5.7L0,56.4h47.7c3.6,0,6.6-2.9,6.6-6.6C54.3,47.5,53.1,45.4,51.3,44.3 M46.5,22.1c3,2.6,2.2,17.9-1.6,18.8
		C43.7,40.9,42.1,18.2,46.5,22.1 M37.3,22.2c3,2.6,2.2,18.1-1.6,19C34.4,41.2,32.8,18.4,37.3,22.2 M28,22.4c3,2.6,2.2,18.3-1.6,19.2
		C25.1,41.6,23.5,18.5,28,22.4 M18.7,22.5c3,2.6,2.2,18.4-1.6,19.4C15.9,41.9,14.2,18.6,18.7,22.5 M14.4,53.6
		c-2.1,0-3.8-1.7-3.8-3.8s1.7-3.8,3.8-3.8c2.1,0,3.8,1.7,3.8,3.8S16.5,53.6,14.4,53.6 M42,53l-23.5,1.8c1.5-1.2,2.5-3.1,2.5-5.1
		c0-1.2-0.3-2.3-0.9-3.3l20.5-0.3c1.2-1.9,3.3-3.2,5.8-3.2c0.6,0,1.3,0.1,1.9,0.3c-0.2,0-0.3,0-0.5,0c-3.6,0-6.6,2.9-6.6,6.6
		C41.1,51,41.5,52.1,42,53 M47.7,53.6c-2.1,0-3.8-1.7-3.8-3.8s1.7-3.8,3.8-3.8s3.8,1.7,3.8,3.8S49.8,53.6,47.7,53.6"/>
	<path class="st0" d="M48.4,47.8c-0.2-0.1-0.4-0.1-0.7-0.1c-1.2,0-2.1,0.9-2.1,2.1c0,1.2,0.9,2.1,2.1,2.1c0.2,0,0.5,0,0.7-0.1
		c-0.8-0.3-1.5-1.1-1.5-2C46.9,48.8,47.5,48,48.4,47.8"/>
	<polygon class="st1" points="22.1,13.7 25.1,13.4 22.9,11.4 23.6,8.7 21.1,10.2 18.3,8.4 18.9,11.6 16.5,13.6 19.6,13.8 20.7,16.6 
			"/>

</g>
</svg>
