<?xml version="1.0" encoding="utf-8"?>
<!-- Generator: Adobe Illustrator 21.0.0, SVG Export Plug-In . SVG Version: 6.00 Build 0)  -->
<svg version="1.1" id="Layer_1" xmlns="http://www.w3.org/2000/svg" xmlns:xlink="http://www.w3.org/1999/xlink" x="0px" y="0px"
	 viewBox="0 0 209.5 56.5" style="enable-background:new 0 0 209.5 56.5;" xml:space="preserve">
<style type="text/css">
	.st0{clip-path:url(#SVGID_2_);fill:#324458;}
	.st1{clip-path:url(#SVGID_2_);fill:#00A5B5;}
</style>
<g>
	<defs>
		<rect id="SVGID_1_" y="0" width="209.5" height="56.5"/>
	</defs>
	<clipPath id="SVGID_2_">
		<use xlink:href="#SVGID_1_"  style="overflow:visible;"/>
	</clipPath>
	<path class="st0" d="M15.1,47.8c-0.2-0.1-0.4-0.1-0.7-0.1c-1.2,0-2.1,0.9-2.1,2.1c0,1.2,0.9,2.1,2.1,2.1c0.2,0,0.5,0,0.7-0.1
		c-0.8-0.3-1.5-1.1-1.5-2C13.6,48.8,14.2,48,15.1,47.8"/>
	<path class="st0" d="M51.3,44.3c-0.2-9.5,5.4-25.4,3-28.8c-1.1-1.5-2.9,0.9-9.8,2.2c-5.9,1-23,1-31.5,0.2c-1-1.8-2.4-4.3-2.4-6.7
		c0-7.2,6.6-9.4,9.1-9.5c0,1.9,0,4,0,6L21,8.4c0-2.3,0-6,0-7.1c0-0.5,0-1-0.5-1.3C19.9-0.3,8.7,1,8.7,11.4c0,1.4,0.3,3.8,0.7,5.8
		c1.4,11.8,1.8,14.9,1.4,26.1c0.7-0.2,1.4-0.4,2.2-0.4c0.7,0,1.3,0.1,1.9,0.3c-0.2,0-0.3,0-0.5,0c-3.6,0-6.6,2.9-6.6,6.6
		c0,2.4,1.3,4.6,3.3,5.7L0,56.4h47.7c3.6,0,6.6-2.9,6.6-6.6C54.3,47.5,53.1,45.4,51.3,44.3 M46.5,22.1c3,2.6,2.2,17.9-1.6,18.8
		C43.7,40.9,42.1,18.2,46.5,22.1 M37.3,22.2c3,2.6,2.2,18.1-1.6,19C34.4,41.2,32.8,18.4,37.3,22.2 M28,22.4c3,2.6,2.2,18.3-1.6,19.2
		C25.1,41.6,23.5,18.5,28,22.4 M18.7,22.5c3,2.6,2.2,18.4-1.6,19.4C15.9,41.9,14.2,18.6,18.7,22.5 M14.4,53.6
		c-2.1,0-3.8-1.7-3.8-3.8s1.7-3.8,3.8-3.8c2.1,0,3.8,1.7,3.8,3.8S16.5,53.6,14.4,53.6 M42,53l-23.5,1.8c1.5-1.2,2.5-3.1,2.5-5.1
		c0-1.2-0.3-2.3-0.9-3.3l20.5-0.3c1.2-1.9,3.3-3.2,5.8-3.2c0.6,0,1.3,0.1,1.9,0.3c-0.2,0-0.3,0-0.5,0c-3.6,0-6.6,2.9-6.6,6.6
		C41.1,51,41.5,52.1,42,53 M47.7,53.6c-2.1,0-3.8-1.7-3.8-3.8s1.7-3.8,3.8-3.8s3.8,1.7,3.8,3.8S49.8,53.6,47.7,53.6"/>
	<path class="st0" d="M48.4,47.8c-0.2-0.1-0.4-0.1-0.7-0.1c-1.2,0-2.1,0.9-2.1,2.1c0,1.2,0.9,2.1,2.1,2.1c0.2,0,0.5,0,0.7-0.1
		c-0.8-0.3-1.5-1.1-1.5-2C46.9,48.8,47.5,48,48.4,47.8"/>
	<polygon class="st1" points="22.1,13.7 25.1,13.4 22.9,11.4 23.6,8.7 21.1,10.2 18.3,8.4 18.9,11.6 16.5,13.6 19.6,13.8 20.7,16.6 
			"/>
	<path class="st0" d="M82.5,21.7c-4.7,0-11,1.8-11.1,7.5c0,1.3,0.7,6.2,2.8,4.6c1.1-0.8-0.9-2.9,0.2-6.1c1.3-4,9.4-5.6,12.5-2.4
		c4.2,4.2-3.2,7.6-6.6,7.5c0.3-1.1,0.6-2.3,1-3.4c0.2-0.5,1.9-2.3,1.9-2.5c0.2-2.2-2.3-0.9-3.2,0.2c-3,3.4-3.1,9.5-4.8,13.6
		c-2.6-1.8-8.2-2.2-8.2,2.3c0.1,4.9,7.2,3.9,9.2,1c3.6,2.6,9.5,4,12.6-0.1c2.9-3.7,1.3-9.7-3.7-10.4c3.4-0.4,6.4-3.7,5.3-7.2
		C89.6,22.9,85.6,21.7,82.5,21.7 M71.8,44.4c-3.7,0.2-1.9-5.2,2.6-2C73.6,43.7,72.8,44.3,71.8,44.4 M87.5,39.8
		c-0.6,5.4-6.5,5.6-10.3,2.3c1.2-2.5,1.9-5.7,2.5-7.7C83.3,34.3,88,35.3,87.5,39.8"/>
	<path class="st0" d="M140.6,43.1c-0.1-1.4-1.2,0.5-1.4,0.6c-0.8,0.7-1.5,1.2-2.5,1.7c0.7-2.6,1.4-5.3,2.1-8c0.4-1.7,3.1-7,0-7
		c-2.2,0-2.7,5.5-3.4,7.2c-0.8,2-2.7,6.2-5.3,6.6c-4.8,0.8,2.8-12.4,0.2-13.7c-2.7-1.4-2.9,4.1-3.3,5.5c-0.9,3-1.6,6.8-5.5,6.5
		c1.6-2.7,3.1-6.9,1.6-9.9c-1.8-3.6-6.5-2.3-9-0.2c0.6-2.1,4.6-10.7,3.1-11.8c-2.9-2.2-4.5,6.2-5,7.7c-1.4,4.5-1.3,10.7-4.6,14.2
		c-0.8,0.8-2.3,2.4-3.4,1.3c-1.1-1.1,0.9-6,1.2-7.2c0.3-1.1,0.8-1.6-0.1-2.4c-0.5-0.4-1.5-0.4-2,0c-0.5,0.4-0.9,2.5-1.2,3.3
		c-0.6,1.4-1.3,2.8-2.1,4c-0.7,0.9-2.3,3.3-3.8,3c-2-0.5-1.4-3.7-0.9-5.1c0.7-2.2,2.1-4.4,4-5.7c2.4-1.6,4.3-1,6.7-0.1
		c0.9,0.3,1.1,0.9,1.9,0.1c1-0.9-0.1-1.2-0.9-1.8c-1.7-1.3-4.1-1.7-6.1-1.3c-5.2,1-9.8,7-9.2,12.3c0.2,2.2,1.6,3.9,3.9,3.9
		c2.9,0,4.6-2.7,5.9-4.8c-0.4,1.9,0,4.3,2.3,4.6c2.6,0.3,4.8-2.5,6.1-4.4c0.4,5.9,7.2,5.4,10.5,2c1.6,0.4,3.4,0.3,5.1-1
		c-0.2,2.4,1.4,3.9,3.8,3.6c2.6-0.3,4.6-2.6,5.9-4.7c-0.7,2.5-1,3.7-1.4,4.7c-2.6,1.1-6,2.4-7.3,5.1c-1.2,2.4-0.1,4.8,2.6,5
		c4.8,0.4,6.3-5.3,7.3-9C140.1,45.6,140.7,43.9,140.6,43.1 M117.9,42.6c-1.8,1.8-4.8,2.6-5.6-0.3c-0.6-1.9,0.1-5.5,1-7.2
		c1.2-2.1,5.7-4.5,7.1-1.4C121.2,35.7,120.7,39.9,117.9,42.6 M132.4,51c-0.4,1-2.1,4.5-3.7,2.9c-1.8-1.7,3.4-4.8,4.3-5.3
		C132.8,49.5,132.7,50.3,132.4,51"/>
	<path class="st1" d="M166,48.3c0.3,0.2,0.3,0.5,0.1,0.8l-1.5,1.7c-0.1,0.2-0.2,0.2-0.4,0.2c-0.2,0-0.3-0.1-0.4-0.2l-5.2-4.7
		c-1.2,0.3-2.4,0.5-3.7,0.5c-1.8,0-3.5-0.3-5-0.9c-1.5-0.6-2.8-1.5-4-2.6c-1.1-1.1-2-2.4-2.6-3.9c-0.6-1.5-0.9-3.1-0.9-4.8
		s0.3-3.3,0.9-4.8c0.6-1.5,1.5-2.8,2.6-3.9c1.1-1.1,2.4-2,4-2.6c1.5-0.6,3.2-1,5-1c1.8,0,3.5,0.3,5,0.9c1.5,0.6,2.8,1.5,3.9,2.6
		c1.1,1.1,2,2.4,2.6,3.9c0.6,1.5,0.9,3.1,0.9,4.8c0,2.2-0.5,4.2-1.4,5.9c-0.9,1.8-2.2,3.2-3.9,4.3L166,48.3z M145.9,34.4
		c0,1.3,0.2,2.5,0.7,3.6c0.5,1.1,1.1,2,1.9,2.8c0.8,0.8,1.8,1.4,2.8,1.9c1.1,0.5,2.3,0.7,3.5,0.7c1.3,0,2.4-0.2,3.5-0.7
		c1.1-0.5,2-1.1,2.8-1.9c0.8-0.8,1.4-1.7,1.9-2.8c0.5-1.1,0.7-2.3,0.7-3.6c0-1.3-0.2-2.4-0.7-3.5c-0.5-1.1-1.1-2-1.9-2.9
		c-0.8-0.8-1.7-1.4-2.8-1.9c-1.1-0.5-2.2-0.7-3.5-0.7c-1.3,0-2.4,0.2-3.5,0.7c-1.1,0.5-2,1.1-2.8,1.9c-0.8,0.8-1.4,1.8-1.9,2.9
		C146.1,31.9,145.9,33.1,145.9,34.4"/>
	<path class="st1" d="M183.8,30.7c0.4,0,0.6,0.2,0.6,0.6v14.4c0,0.4-0.2,0.6-0.6,0.6h-1.7c-0.4,0-0.6-0.2-0.6-0.5l-0.1-1.8
		c-0.5,0.7-1.1,1.4-2,1.9c-0.9,0.5-1.9,0.8-3.1,0.8c-1,0-2-0.2-2.8-0.5c-0.9-0.4-1.6-0.8-2.2-1.5c-0.6-0.6-1.1-1.4-1.4-2.3
		c-0.3-0.9-0.5-1.9-0.5-3v-8.1c0-0.4,0.2-0.6,0.5-0.6h2.3c0.4,0,0.5,0.2,0.5,0.6v7.4c0,1.4,0.4,2.6,1.1,3.4c0.7,0.8,1.7,1.3,2.9,1.3
		c0.7,0,1.3-0.1,1.8-0.4c0.5-0.2,1-0.6,1.3-1c0.4-0.4,0.6-0.9,0.8-1.4c0.2-0.5,0.3-1.1,0.3-1.6v-7.7c0-0.4,0.2-0.6,0.6-0.6H183.8z"
		/>
	<path class="st1" d="M188.8,27.7c-0.7,0-1.2-0.2-1.7-0.6c-0.5-0.4-0.7-1-0.7-1.7c0-0.7,0.2-1.2,0.7-1.6c0.5-0.4,1-0.6,1.7-0.6
		c0.7,0,1.2,0.2,1.7,0.6c0.5,0.4,0.7,1,0.7,1.7c0,0.7-0.2,1.2-0.7,1.7C190,27.5,189.4,27.7,188.8,27.7 M187.7,46.3
		c-0.4,0-0.6-0.2-0.6-0.6l0-14.4c0-0.4,0.2-0.6,0.5-0.6h2.3c0.4,0,0.5,0.2,0.5,0.6v14.4c0,0.4-0.2,0.6-0.5,0.6H187.7z"/>
	<path class="st1" d="M201.9,30.4c1.1,0,2.1,0.2,3,0.6c0.9,0.4,1.7,1,2.4,1.7c0.7,0.7,1.2,1.6,1.6,2.6c0.4,1,0.6,2.1,0.6,3.2
		c0,1.2-0.2,2.2-0.6,3.2c-0.4,1-0.9,1.9-1.6,2.6c-0.7,0.7-1.5,1.3-2.4,1.7c-0.9,0.4-1.9,0.6-3,0.6c-1.2,0-2.3-0.2-3.2-0.7
		c-0.9-0.5-1.6-1.1-2.2-1.8v8.3c0,0.4-0.2,0.6-0.6,0.6h-2.2c-0.4,0-0.6-0.2-0.6-0.6V31.2c0-0.4,0.2-0.6,0.6-0.6h1.8
		c0.4,0,0.6,0.2,0.6,0.5l0.1,1.8c0.6-0.8,1.4-1.4,2.3-1.9C199.5,30.6,200.6,30.4,201.9,30.4 M201.3,43.5c0.7,0,1.3-0.1,1.9-0.4
		c0.6-0.2,1.1-0.6,1.5-1.1c0.4-0.5,0.8-1,1-1.6c0.2-0.6,0.4-1.3,0.4-2c0-0.7-0.1-1.4-0.4-2c-0.2-0.6-0.6-1.1-1-1.6
		c-0.4-0.5-0.9-0.8-1.5-1.1c-0.6-0.2-1.2-0.4-1.9-0.4c-0.7,0-1.4,0.1-2,0.4c-0.6,0.2-1.1,0.6-1.5,1c-0.4,0.4-0.8,1-1,1.6
		c-0.2,0.6-0.4,1.3-0.4,2c0,0.7,0.1,1.4,0.4,2c0.2,0.6,0.6,1.1,1,1.6c0.4,0.5,0.9,0.8,1.5,1.1C199.9,43.4,200.6,43.5,201.3,43.5"/>
</g>
</svg>
