<?xml version="1.0" encoding="utf-8"?>
<!-- Generator: Adobe Illustrator 22.0.0, SVG Export Plug-In . SVG Version: 6.00 Build 0)  -->
<svg version="1.1" id="Layer_1" xmlns="http://www.w3.org/2000/svg" xmlns:xlink="http://www.w3.org/1999/xlink" x="0px" y="0px"
	 viewBox="0 0 194 32.4" style="enable-background:new 0 0 194 32.4;" xml:space="preserve">
<style type="text/css">
	.st0{fill:#FFD27E;}
</style>
<g id="Layer_1_1_">
</g>
<g id="Layer_2_1_">
	<path class="st0" d="M34,12.3c-0.1-0.2-0.3-0.4-0.5-0.4l-11-1.6l-4.9-10C17.4,0.1,17.2,0,17,0s-0.4,0.1-0.5,0.3l-4.9,10l-11,1.6
		c-0.2,0-0.4,0.2-0.5,0.4C0,12.6,0,12.8,0.2,13l8,7.8l-1.9,11c0,0.2,0.1,0.5,0.2,0.6c0.2,0.1,0.4,0.2,0.6,0l9.8-5.2l9.8,5.2
		c0.1,0,0.2,0.1,0.3,0.1c0.1,0,0.3,0,0.4-0.1c0.2-0.1,0.3-0.4,0.2-0.6l-1.9-11l8-7.8C34,12.8,34,12.5,34,12.3z"/>
	<path class="st0" d="M74,12.3c-0.1-0.2-0.3-0.4-0.5-0.4l-11-1.6l-4.9-10C57.4,0.1,57.2,0,57,0s-0.4,0.1-0.5,0.3l-4.9,10l-11,1.6
		c-0.2,0-0.4,0.2-0.5,0.4s0,0.5,0.2,0.6l8,7.8l-1.9,11c0,0.2,0.1,0.5,0.2,0.6c0.2,0.1,0.4,0.2,0.6,0l9.8-5.2l9.8,5.2
		c0.1,0,0.2,0.1,0.3,0.1c0.1,0,0.3,0,0.4-0.1c0.2-0.1,0.3-0.4,0.2-0.6l-1.9-11l8-7.8C74,12.8,74,12.5,74,12.3z"/>
	<g>
		<path class="st0" d="M97,1.5l4.6,9.3l0.2,0.5l0.5,0.1l10.2,1.5l-7.4,7.2l-0.4,0.4l0.1,0.5l1.7,10.2l-9.1-4.8L97,26l-0.5,0.2
			L87.4,31l1.7-10.2l0.1-0.5L88.8,20l-7.4-7.2l10.2-1.5l0.5-0.1l0.2-0.5L97,1.5 M97,0c-0.2,0-0.4,0.1-0.5,0.3l-4.9,10l-11,1.6
			c-0.2,0-0.4,0.2-0.5,0.4s0,0.5,0.2,0.6l8,7.8l-1.9,11c0,0.2,0.1,0.5,0.2,0.6s0.2,0.1,0.4,0.1c0.1,0,0.2,0,0.3-0.1l9.8-5.2l9.8,5.2
			c0.1,0,0.2,0.1,0.3,0.1c0.1,0,0.3,0,0.4-0.1c0.2-0.1,0.3-0.4,0.2-0.6l-1.9-11l8-7.8c0.2-0.2,0.2-0.4,0.2-0.6
			c-0.1-0.2-0.3-0.4-0.5-0.4l-11-1.6l-4.9-10C97.4,0.1,97.2,0,97,0L97,0z"/>
	</g>
	<g>
		<path class="st0" d="M137,1.5l4.6,9.3l0.2,0.5l0.5,0.1l10.2,1.5l-7.4,7.2l-0.4,0.4l0.1,0.5l1.7,10.2l-9.1-4.8L137,26l-0.5,0.2
			l-9.1,4.8l1.7-10.2l0.1-0.5l-0.4-0.4l-7.4-7.2l10.2-1.5l0.5-0.1l0.2-0.5L137,1.5 M137,0c-0.2,0-0.4,0.1-0.5,0.3l-4.9,10l-11,1.6
			c-0.2,0-0.4,0.2-0.5,0.4s0,0.5,0.2,0.6l8,7.8l-1.9,11c0,0.2,0.1,0.5,0.2,0.6s0.2,0.1,0.4,0.1c0.1,0,0.2,0,0.3-0.1l9.8-5.2l9.8,5.2
			c0.1,0,0.2,0.1,0.3,0.1s0.3,0,0.4-0.1c0.2-0.1,0.3-0.4,0.2-0.6l-1.9-11l8-7.8c0.2-0.2,0.2-0.4,0.2-0.6c-0.1-0.2-0.3-0.4-0.5-0.4
			l-11-1.6l-4.9-10C137.4,0.1,137.2,0,137,0L137,0z"/>
	</g>
	<g>
		<path class="st0" d="M177,1.5l4.6,9.3l0.2,0.5l0.5,0.1l10.2,1.5l-7.4,7.2l-0.4,0.4l0.1,0.5l1.7,10.2l-9.1-4.8L177,26l-0.5,0.2
			l-9.1,4.8l1.7-10.2l0.1-0.5l-0.4-0.4l-7.4-7.2l10.2-1.5l0.5-0.1l0.2-0.5L177,1.5 M177,0c-0.2,0-0.4,0.1-0.5,0.3l-4.9,10l-11,1.6
			c-0.2,0-0.4,0.2-0.5,0.4s0,0.5,0.2,0.6l8,7.8l-1.9,11c0,0.2,0.1,0.5,0.2,0.6c0.1,0.1,0.2,0.1,0.4,0.1c0.1,0,0.2,0,0.3-0.1l9.8-5.2
			l9.8,5.2c0.1,0,0.2,0.1,0.3,0.1s0.3,0,0.4-0.1c0.2-0.1,0.3-0.4,0.2-0.6l-1.9-11l8-7.8c0.2-0.2,0.2-0.4,0.2-0.6
			c-0.1-0.2-0.3-0.4-0.5-0.4l-11-1.6l-4.9-10C177.4,0.1,177.2,0,177,0L177,0z"/>
	</g>
</g>
</svg>
